<svg version="1.1" id="Layer_1" xmlns="http://www.w3.org/2000/svg" xmlns:xlink="http://www.w3.org/1999/xlink" x="0px" y="0px"
	 width="100%" viewBox="0 0 88 91" enable-background="new 0 0 88 91" xml:space="preserve">
<path fill="#FEFEFE" opacity="1.000000" stroke="none" 
	d="
M52.000000,92.000000 
	C34.666668,92.000000 17.833340,92.000000 1.000007,92.000000 
	C1.000005,61.666676 1.000005,31.333351 1.000002,1.000019 
	C30.333321,1.000013 59.666641,1.000013 88.999969,1.000006 
	C88.999985,31.333313 88.999985,61.666626 88.999992,91.999969 
	C76.833336,92.000000 64.666664,92.000000 52.000000,92.000000 
M26.183537,52.859032 
	C25.100948,69.440018 27.954876,73.554039 43.904953,78.258202 
	C45.969826,78.867188 48.132534,79.746025 50.198067,79.623772 
	C54.277348,79.382324 58.757637,79.393532 62.233227,77.638748 
	C64.790718,76.347504 67.518631,72.446907 67.578491,69.653503 
	C67.875824,55.781689 50.587727,42.023342 37.245647,44.773258 
	C36.785576,41.962765 36.321320,39.126701 35.857059,36.290638 
	C35.379749,36.175331 34.902439,36.060024 34.425129,35.944721 
	C32.276184,39.944946 30.127239,43.945171 27.307833,47.789982 
	C26.429699,47.957569 24.934465,47.891197 24.768549,48.328812 
	C23.041113,52.885056 20.475456,57.453648 20.168858,62.151085 
	C19.488413,72.576263 26.142147,79.355789 35.271088,78.863716 
	C20.424168,70.518494 21.741581,59.455257 26.183537,52.859032 
M66.642250,27.606874 
	C60.676147,25.134651 54.898678,26.043383 49.076958,28.335224 
	C49.289871,28.720163 49.339077,28.950457 49.450603,28.986177 
	C49.922077,29.137197 50.423038,29.363354 50.893711,29.324671 
	C58.130367,28.729929 65.272728,28.294058 70.028633,35.521870 
	C70.350700,36.011326 72.109596,36.179214 72.590607,35.773636 
	C73.125755,35.322407 73.418159,33.627914 73.024422,33.195282 
	C71.290024,31.289545 69.270042,29.643723 66.642250,27.606874 
M54.576359,23.809275 
	C56.890339,23.371935 59.204315,22.934593 61.848015,22.434937 
	C57.971485,17.958387 49.808640,20.241224 42.683296,27.551058 
	C46.839897,26.196428 50.301147,25.068415 54.576359,23.809275 
M46.634270,30.132971 
	C46.558529,30.028246 46.482788,29.923523 46.407047,29.818798 
	C46.482594,29.842281 46.558140,29.865765 46.634270,30.132971 
M48.481030,30.488544 
	C48.481030,30.488544 48.517345,30.473907 48.481030,30.488544 
z"/>
<path fill="#1D222C" opacity="1.000000" stroke="none" 
	d="
M27.978294,47.945396 
	C30.127239,43.945171 32.276184,39.944946 34.425129,35.944721 
	C34.902439,36.060024 35.379749,36.175331 35.857059,36.290638 
	C36.321320,39.126701 36.785576,41.962765 37.245647,44.773258 
	C50.587727,42.023342 67.875824,55.781689 67.578491,69.653503 
	C67.518631,72.446907 64.790718,76.347504 62.233227,77.638748 
	C58.757637,79.393532 54.277348,79.382324 50.198067,79.623772 
	C48.132534,79.746025 45.969826,78.867188 43.904953,78.258202 
	C27.954876,73.554039 25.100948,69.440018 26.319653,52.131989 
	C26.963276,50.251759 27.470785,49.098576 27.978294,47.945396 
M43.418076,49.835651 
	C41.685894,50.765129 38.894417,51.379421 38.499470,52.706783 
	C38.043316,54.239826 39.177608,57.399261 40.533443,58.108284 
	C45.128620,60.511292 50.018635,62.530785 55.011429,63.925724 
	C58.018166,64.765778 58.352364,62.244770 56.896374,60.284306 
	C53.566120,55.800190 50.246189,51.161217 43.418076,49.835651 
z"/>
<path fill="#2F333C" opacity="1.000000" stroke="none" 
	d="
M27.643063,47.867691 
	C27.470785,49.098576 26.963276,50.251759 26.244545,51.667725 
	C21.741581,59.455257 20.424168,70.518494 35.271088,78.863716 
	C26.142147,79.355789 19.488413,72.576263 20.168858,62.151085 
	C20.475456,57.453648 23.041113,52.885056 24.768549,48.328812 
	C24.934465,47.891197 26.429699,47.957569 27.643063,47.867691 
z"/>
<path fill="#2D313A" opacity="1.000000" stroke="none" 
	d="
M66.997894,27.755302 
	C69.270042,29.643723 71.290024,31.289545 73.024422,33.195282 
	C73.418159,33.627914 73.125755,35.322407 72.590607,35.773636 
	C72.109596,36.179214 70.350700,36.011326 70.028633,35.521870 
	C65.272728,28.294058 58.130367,28.729929 50.893711,29.324671 
	C50.423038,29.363354 49.922077,29.137197 49.450603,28.986177 
	C49.339077,28.950457 49.289871,28.720163 49.076958,28.335224 
	C54.898678,26.043383 60.676147,25.134651 66.997894,27.755302 
z"/>
<path fill="#2B3039" opacity="1.000000" stroke="none" 
	d="
M54.169376,23.874836 
	C50.301147,25.068415 46.839897,26.196428 42.683296,27.551058 
	C49.808640,20.241224 57.971485,17.958387 61.848015,22.434937 
	C59.204315,22.934593 56.890339,23.371935 54.169376,23.874836 
z"/>
<path fill="#2D313A" opacity="1.000000" stroke="none" 
	d="
M46.633980,30.011108 
	C46.558140,29.865765 46.482594,29.842281 46.407047,29.818798 
	C46.482788,29.923523 46.558529,30.028246 46.633980,30.011108 
z"/>
<path fill="#2D313A" opacity="1.000000" stroke="none" 
	d="
M48.499187,30.481226 
	C48.517345,30.473907 48.481030,30.488544 48.499187,30.481226 
z"/>
<path fill="#F7F7F7" opacity="1.000000" stroke="none" 
	d="
M43.822075,49.869152 
	C50.246189,51.161217 53.566120,55.800190 56.896374,60.284306 
	C58.352364,62.244770 58.018166,64.765778 55.011429,63.925724 
	C50.018635,62.530785 45.128620,60.511292 40.533443,58.108284 
	C39.177608,57.399261 38.043316,54.239826 38.499470,52.706783 
	C38.894417,51.379421 41.685894,50.765129 43.822075,49.869152 
z"/>
</svg>