<svg width="150" height="23" viewBox="0 0 150 23" fill="none" xmlns="http://www.w3.org/2000/svg">
<path d="M11.0592 22.66C5.05921 22.66 0.979209 18.19 0.979209 11.59C0.979209 4.98996 5.11921 0.489955 11.1792 0.489955C15.7992 0.489955 19.4292 3.27995 20.2992 7.53996H17.9892C17.0892 4.44996 14.4492 2.55995 11.0892 2.55995C6.37921 2.55995 3.22921 6.15996 3.22921 11.59C3.22921 16.99 6.37921 20.59 11.0892 20.59C14.4792 20.59 17.1792 18.76 18.1092 15.88H20.4192C19.4292 19.93 15.6792 22.66 11.0592 22.66ZM22.6847 15.07C22.6847 10.63 25.8047 7.41996 30.0647 7.41996C34.3247 7.41996 37.4447 10.63 37.4447 15.07C37.4447 19.48 34.3247 22.69 30.0647 22.69C25.8047 22.69 22.6847 19.48 22.6847 15.07ZM24.7847 15.04C24.7847 18.46 26.9447 20.83 30.0647 20.83C33.1547 20.83 35.3447 18.46 35.3447 15.04C35.3447 11.68 33.1547 9.27996 30.0647 9.27996C26.9447 9.27996 24.7847 11.68 24.7847 15.04ZM46.4555 22.69C42.2255 22.69 39.7355 19.45 39.7355 15.1C39.7355 10.72 42.2255 7.41996 46.5455 7.41996C48.9455 7.41996 50.8655 8.46996 51.8855 10.57V0.459955H53.9555V22.33H52.1555L51.9455 19.36C50.9255 21.61 48.8855 22.69 46.4555 22.69ZM46.8155 20.8C49.9955 20.8 51.8555 18.4 51.8555 15.04C51.8555 11.71 49.9955 9.27996 46.8155 9.27996C43.6655 9.27996 41.8355 11.71 41.8355 15.04C41.8355 18.4 43.6655 20.8 46.8155 20.8ZM64.365 22.69C60.105 22.69 57.255 19.63 57.255 15.07C57.255 10.54 60.075 7.41996 64.215 7.41996C68.145 7.41996 70.815 10.21 70.815 14.32V15.34H59.265C59.415 18.88 61.275 20.92 64.395 20.92C66.765 20.92 68.295 19.9 68.835 17.98H70.815C70.035 21.04 67.785 22.69 64.365 22.69ZM64.215 9.18996C61.485 9.18996 59.685 10.99 59.325 13.84H68.745C68.745 11.05 66.945 9.18996 64.215 9.18996ZM74.1351 22.33H71.9451L79.8351 0.849955H82.5051L90.4851 22.33H88.2351L86.1351 16.63H76.2351L74.1351 22.33ZM80.8851 3.87996L76.8951 14.74H85.4451L81.4251 3.87996C81.3351 3.57996 81.1851 3.21996 81.1551 3.00995C81.1251 3.18996 81.0051 3.57996 80.8851 3.87996ZM95.0911 22.33H93.0211V7.80996H94.8211L95.1211 10.33C96.0811 8.46996 98.0011 7.41996 100.101 7.41996C104.091 7.41996 105.741 9.78996 105.741 13.45V22.33H103.671V13.9C103.671 10.51 102.141 9.30996 99.7411 9.30996C96.7711 9.30996 95.0911 11.47 95.0911 14.74V22.33ZM113.197 22.33H111.157V9.54996H108.247V7.80996H111.157V3.21996H113.197V7.80996H116.107V9.54996H113.197V22.33ZM127.573 22.33H125.383L133.273 0.849955H135.943L143.923 22.33H141.673L139.573 16.63H129.673L127.573 22.33ZM134.323 3.87996L130.333 14.74H138.883L134.863 3.87996C134.773 3.57996 134.623 3.21996 134.593 3.00995C134.563 3.18996 134.443 3.57996 134.323 3.87996ZM149.069 0.849955V22.33H146.909V0.849955H149.069Z" fill="#181D27"/>
</svg>
